<svg width="286" height="56" viewBox="0 0 286 56" fill="none" xmlns="http://www.w3.org/2000/svg">
<path d="M21 42C32.598 42 42 32.598 42 21C42 9.40202 32.598 0 21 0C9.40202 0 0 9.40202 0 21C0 32.598 9.40202 42 21 42Z" fill="#F44336"/>
<path d="M20.9999 8L24.8999 15.9L33.5999 17.2L27.2999 23.3L28.7999 32L20.9999 27.9L13.1999 32L14.6999 23.3L8.3999 17.2L17.0999 15.9L20.9999 8Z" fill="#FFCA28"/>
<path d="M82 54C93.598 54 103 44.598 103 33C103 21.402 93.598 12 82 12C70.402 12 61 21.402 61 33C61 44.598 70.402 54 82 54Z" fill="#F44336"/>
<path d="M81.9999 20L85.8999 27.9L94.5999 29.2L88.2999 35.3L89.7999 44L81.9999 39.9L74.1999 44L75.6999 35.3L69.3999 29.2L78.0999 27.9L81.9999 20Z" fill="#FFCA28"/>
<path d="M265 42C253.402 42 244 32.598 244 21C244 9.40202 253.402 0 265 0C276.598 0 286 9.40202 286 21C286 32.598 276.598 42 265 42Z" fill="#F44336"/>
<path d="M265 8L261.1 15.9L252.4 17.2L258.7 23.3L257.2 32L265 27.9L272.8 32L271.3 23.3L277.6 17.2L268.9 15.9L265 8Z" fill="#FFCA28"/>
<path d="M204 54C192.402 54 183 44.598 183 33C183 21.402 192.402 12 204 12C215.598 12 225 21.402 225 33C225 44.598 215.598 54 204 54Z" fill="#F44336"/>
<path d="M204 20L200.1 27.9L191.4 29.2L197.7 35.3L196.2 44L204 39.9L211.8 44L210.3 35.3L216.6 29.2L207.9 27.9L204 20Z" fill="#FFCA28"/>
<path d="M143 56C154.598 56 164 46.598 164 35C164 23.402 154.598 14 143 14C131.402 14 122 23.402 122 35C122 46.598 131.402 56 143 56Z" fill="#F44336"/>
<path d="M143 22L146.9 29.9L155.6 31.2L149.3 37.3L150.8 46L143 41.9L135.2 46L136.7 37.3L130.4 31.2L139.1 29.9L143 22Z" fill="#FFCA28"/>
</svg>
