<svg width="76" height="75" viewBox="0 0 76 75" fill="none" xmlns="http://www.w3.org/2000/svg">
<path d="M49.1403 23.7899L51.2149 25.8646C54.8706 29.5202 60.8508 29.5202 64.5065 25.8646L72.2614 18.1096C75.9171 14.454 75.9171 8.47373 72.2614 4.81809L70.1868 2.74344C66.5311 -0.912201 60.5509 -0.912201 56.8952 2.74344L49.1403 10.4921C45.4846 14.1478 45.4846 20.1343 49.1403 23.7899ZM55.7454 18.1596C53.802 16.2162 53.8208 13.0105 55.7892 11.0421L59.9697 6.8615C61.9382 4.89308 65.1439 4.87433 67.0873 6.81776L68.1934 7.92383C70.1368 9.86725 70.118 13.073 68.1496 15.0414L63.9691 19.2219C62.0006 21.1904 58.7949 21.2091 56.8515 19.2657L55.7454 18.1596Z" fill="#2B2B2B"/>
<path d="M10.503 49.1357L2.74808 56.8906C-0.907563 60.5463 -0.907563 66.5265 2.74808 70.1821L4.82273 72.2568C8.47837 75.9124 14.4586 75.9124 18.1143 72.2568L25.8692 64.5018C29.5249 60.8462 29.5249 54.8659 25.8692 51.2103L23.7946 49.1357C20.1389 45.48 14.1587 45.48 10.503 49.1357ZM19.2703 56.8406C21.2138 58.784 21.195 61.9898 19.2266 63.9582L15.046 68.1387C13.0776 70.1072 9.87189 70.1259 7.92846 68.1825L6.8224 67.0764C4.87897 65.133 4.89772 61.9273 6.86614 59.9588L11.0467 55.7783C13.0151 53.8099 16.2208 53.7911 18.1643 55.7346L19.2703 56.8406Z" fill="#2B2B2B"/>
<path d="M37.5048 74.8377C58.1257 74.8377 74.8423 58.1211 74.8423 37.5001C74.8423 16.8792 58.1257 0.162598 37.5048 0.162598C16.8838 0.162598 0.167236 16.8792 0.167236 37.5001C0.167236 58.1211 16.8838 74.8377 37.5048 74.8377Z" fill="url(#paint0_radial)"/>
<path opacity="0.2" d="M63.5441 1.24979C65.7312 1.24979 67.7746 2.0934 69.3056 3.6244L71.3803 5.69905C74.561 8.87977 74.561 14.0477 71.3803 17.2221L69.5619 19.0406C69.1744 19.428 69.0869 20.0279 69.3431 20.5153C72.1177 25.7082 73.5862 31.5822 73.5862 37.5C73.5862 57.3967 57.3951 73.5877 37.4984 73.5877C31.5807 73.5877 25.7067 72.1192 20.5138 69.3447C20.3263 69.2447 20.1263 69.1947 19.9264 69.1947C19.6014 69.1947 19.2827 69.3197 19.0453 69.5634L17.2268 71.3819C15.6958 72.9128 13.6462 73.7565 11.4653 73.7565C9.28439 73.7565 7.23473 72.9128 5.70374 71.3819L3.62908 69.3072C0.448363 66.1265 0.448363 60.9586 3.62908 57.7841L5.44753 55.9657C5.83497 55.5782 5.92245 54.9783 5.66624 54.4909C2.89171 49.298 1.4232 43.424 1.4232 37.5062C1.4232 17.6096 17.6143 1.41851 37.5109 1.41851C43.4287 1.41851 49.3027 2.88702 54.4956 5.66156C54.6831 5.76154 54.883 5.81153 55.083 5.81153C55.408 5.81153 55.7267 5.68655 55.9641 5.44284L57.7826 3.6244C59.3136 2.0934 61.357 1.24979 63.5441 1.24979ZM67.6747 16.766C68.0059 16.766 68.3246 16.6347 68.5558 16.3973L69.0244 15.9286C70.2117 14.7413 70.8679 13.1603 70.8804 11.4856C70.8929 9.79837 70.2492 8.22363 69.0682 7.04258L67.9621 5.93651C66.7936 4.76796 65.2251 4.12431 63.5566 4.12431C61.8631 4.12431 60.2696 4.78045 59.0761 5.98025L58.6074 6.44893C58.3512 6.70513 58.22 7.06757 58.245 7.43001C58.2762 7.79245 58.4574 8.1299 58.7511 8.34236C61.7881 10.5545 64.4502 13.2165 66.6623 16.2535C66.8748 16.5472 67.2122 16.7347 67.5747 16.7597C67.6122 16.7597 67.6434 16.766 67.6747 16.766ZM11.4528 70.8819C13.1462 70.8819 14.7397 70.2258 15.9333 69.026L16.402 68.5573C16.6582 68.3011 16.7894 67.9387 16.7644 67.5762C16.7332 67.2138 16.5519 66.8764 16.2582 66.6639C13.2212 64.4518 10.5592 61.7897 8.34705 58.7527C8.24101 58.607 8.10442 58.4862 7.94684 58.3988C7.78925 58.3113 7.61446 58.2594 7.4347 58.2465C7.40345 58.2465 7.37221 58.2403 7.34096 58.2403C7.00977 58.2403 6.69107 58.3715 6.45986 58.609L5.99119 59.0777C4.80389 60.265 4.14775 61.8459 4.13525 63.5207C4.12275 65.2079 4.76639 66.7826 5.94745 67.9637L7.05351 69.0697C8.21582 70.2383 9.77806 70.8819 11.4528 70.8819ZM63.5441 0C61.132 0 58.7262 0.912348 56.8952 2.74329L55.0768 4.56174C49.673 1.66554 43.6356 0.154038 37.5047 0.162473C16.8831 0.162473 0.167159 16.8784 0.167159 37.5C0.167159 43.8552 1.76064 49.8354 4.56018 55.0721L2.74173 56.8905C-0.91391 60.5462 -0.91391 66.5264 2.74173 70.1821L4.81639 72.2567C6.64108 74.0814 9.05318 75 11.4653 75C13.8774 75 16.2832 74.0877 18.1142 72.2567L19.9326 70.4383C25.338 73.3296 31.3746 74.8388 37.5047 74.8313C58.1263 74.8313 74.8422 58.1153 74.8422 37.4938C74.8422 31.1386 73.2487 25.1583 70.4492 19.9217L72.2677 18.1032C75.9233 14.4476 75.9233 8.46734 72.2677 4.8117L70.193 2.73704C68.3621 0.912348 65.95 0 63.5441 0ZM67.6747 15.5162C65.3857 12.3805 62.6242 9.61895 59.4885 7.33003L59.9572 6.86136C60.4297 6.38873 60.9909 6.01406 61.6086 5.75884C62.2263 5.50362 62.8883 5.37288 63.5566 5.3741C64.8376 5.3741 66.1124 5.85527 67.081 6.82386L68.1871 7.92993C70.1305 9.87335 70.1118 13.0791 68.1433 15.0475L67.6747 15.5162ZM11.4528 69.6321C10.1717 69.6321 8.89696 69.151 7.92837 68.1824L6.8223 67.0763C4.87887 65.1329 4.89762 61.9272 6.86604 59.9588L7.33472 59.4901C9.62183 62.6271 12.3839 65.3891 15.5209 67.6762L15.0522 68.1449C14.0962 69.097 12.802 69.6317 11.4528 69.6321Z" fill="#EEEEEE"/>
<path d="M71.6864 37.4874C71.6864 37.7686 71.6302 38.0623 71.6239 38.3373C71.6177 38.6185 70.7178 38.8685 70.6991 39.1434C70.6866 39.4246 71.2677 39.7371 71.249 40.0183C71.2302 40.2995 71.1615 40.5807 71.1365 40.8556C71.1115 41.1368 71.5114 41.468 71.4739 41.7492C71.4364 42.0304 70.5616 42.1929 70.5241 42.4741C70.4804 42.7491 70.3366 43.0053 70.2866 43.2802C70.2366 43.5552 70.0242 43.7926 69.9679 44.0613C69.9117 44.3363 70.0742 44.6487 70.0117 44.9174C69.9492 45.1924 70.2304 45.5423 70.1617 45.8173C70.0929 46.086 69.643 46.2547 69.568 46.5234C69.493 46.7921 69.3805 47.0421 69.2993 47.3108C69.2181 47.5795 69.8742 48.0857 69.7867 48.3481C69.6992 48.6106 69.518 48.8605 69.4243 49.123C69.3305 49.3855 68.4869 49.3667 68.387 49.6292C68.287 49.8916 69.0806 50.5165 68.9681 50.7727C68.8619 51.0289 68.4182 51.1539 68.2995 51.4039C68.187 51.6601 68.3057 52.035 68.187 52.285C68.0683 52.5349 67.4184 52.5349 67.2934 52.7849C67.1684 53.0348 67.0997 53.3098 66.9622 53.5598C66.831 53.8035 66.781 54.1034 66.6435 54.3409C66.506 54.5846 66.2748 54.7721 66.1248 55.0095C65.9811 55.247 65.5812 55.322 65.4249 55.5532C65.275 55.7906 65.9311 56.5655 65.7686 56.7967C65.6124 57.0279 65.0375 56.9779 64.875 57.2091C64.7126 57.4341 64.5251 57.6528 64.3564 57.8715C64.1876 58.0965 64.0314 58.3277 63.8565 58.5464C63.6815 58.7651 63.2441 58.7651 63.0628 58.9776C62.8816 59.1901 63.3065 59.9274 63.1191 60.1399C62.9316 60.3524 62.6817 60.5211 62.4942 60.7211C62.3067 60.9273 61.6818 60.7273 61.4881 60.9273C61.2944 61.1272 61.1694 61.4022 60.9694 61.5959C60.7695 61.7896 60.4758 61.8896 60.2758 62.0771C60.0696 62.2646 59.7134 62.2771 59.5009 62.4645C59.2885 62.652 58.9635 62.6832 58.7511 62.8582C58.5386 63.0394 58.6761 63.6456 58.4574 63.8205C58.2386 63.9955 57.7637 63.833 57.5388 64.0018C57.3138 64.1705 57.695 65.1578 57.47 65.3203C57.2451 65.4828 56.9888 65.639 56.7576 65.7952C56.5264 65.9514 56.0203 65.714 55.789 65.864C55.5516 66.0139 55.5703 66.5888 55.3329 66.7326C55.0954 66.8763 54.408 66.2826 54.1643 66.4264C53.9206 66.5638 54.0581 67.3825 53.8081 67.5199C53.5644 67.6512 53.0333 67.27 52.7895 67.395C52.5396 67.5199 52.5396 68.1573 52.2834 68.2761C52.0334 68.3948 51.4148 67.7386 51.1586 67.8574C50.9024 67.9699 50.7274 68.2448 50.4649 68.351C50.2087 68.4573 49.815 68.2198 49.5588 68.3198C49.2964 68.4198 49.4339 69.5633 49.1714 69.6633C48.9089 69.7571 48.6277 69.8508 48.3653 69.9383C48.1028 70.0258 47.5967 69.3946 47.328 69.4821C47.0593 69.5633 46.9968 70.357 46.7281 70.4319C46.4594 70.5069 45.9344 69.6383 45.6657 69.7071C45.397 69.7758 45.2658 70.407 44.9908 70.4694C44.7159 70.5319 44.4722 70.7381 44.1972 70.7944C43.9223 70.8506 43.6911 71.1818 43.4161 71.2318C43.1412 71.2818 42.835 71.2068 42.5538 71.2506C42.2788 71.2943 41.8914 70.5257 41.6102 70.5632C41.3352 70.5944 41.0415 70.382 40.7603 70.4132C40.4853 70.4382 40.2604 71.0381 39.9792 71.0631C39.698 71.0818 39.398 70.5944 39.1168 70.6069C38.8356 70.6194 38.5794 71.0756 38.2982 71.0818C38.017 71.0881 37.7421 71.0568 37.4608 71.0568C37.1796 71.0568 36.8922 71.438 36.6172 71.4318C36.336 71.4255 36.0548 71.2881 35.7799 71.2756C35.4987 71.2631 35.2737 70.4757 34.9925 70.4507C34.7113 70.4319 34.3676 71.2318 34.0927 71.2068C33.8115 71.1818 33.5927 70.6507 33.3178 70.6132C33.0366 70.5757 32.6616 71.2506 32.3867 71.2131C32.1117 71.1693 31.9493 70.4007 31.6743 70.3507C31.3994 70.3007 31.1182 70.3257 30.8432 70.2695C30.5683 70.2132 30.1683 70.7381 29.8934 70.6757C29.6184 70.6132 29.3247 70.5882 29.056 70.5194C28.7873 70.4507 28.6248 69.9508 28.3561 69.8758C28.0874 69.8008 27.7812 69.832 27.5188 69.7508C27.2501 69.6696 26.9751 69.6008 26.7126 69.5071C26.4502 69.4196 26.1627 69.3696 25.9003 69.2759C25.6378 69.1822 25.2754 69.3196 25.0192 69.2197C24.7567 69.1197 24.5318 68.9072 24.2755 68.801C24.0193 68.6947 24.0943 67.8324 23.8381 67.7137C23.5819 67.6012 23.1195 67.9449 22.8695 67.8261C22.6196 67.7074 22.4758 67.37 22.2259 67.245C21.9759 67.12 21.6635 67.12 21.4198 66.9825C21.1761 66.8513 21.1136 66.3951 20.8699 66.2576C20.6262 66.1202 19.9263 66.7451 19.6888 66.6013C19.4514 66.4576 19.3576 66.0577 19.1264 65.9077C18.8889 65.7577 18.9514 65.1641 18.7202 65.0016C18.489 64.8454 17.7079 65.4703 17.4767 65.3016C17.2517 65.1391 17.1955 64.7204 16.9705 64.5517C16.7456 64.3829 16.7518 63.9143 16.5331 63.7393C16.3144 63.5643 16.2831 63.1707 16.0707 62.9894C15.8582 62.8082 15.1771 63.1707 14.9708 62.9832C14.7584 62.7957 14.8146 62.3145 14.6084 62.1271C14.4022 61.9396 13.896 62.0583 13.6961 61.8646C13.4961 61.6709 13.7586 61.0085 13.5586 60.8085C13.3649 60.6086 12.6837 60.8648 12.4963 60.6586C12.3088 60.4524 12.365 60.0149 12.1838 59.8025C11.9963 59.59 11.9713 59.2463 11.7901 59.0338C11.6089 58.8214 11.7089 58.3839 11.5339 58.1652C11.359 57.9465 10.3779 58.359 10.2091 58.134C10.0404 57.909 10.5466 57.1842 10.3841 56.9592C10.2216 56.7342 10.3216 56.3343 10.1654 56.1031C10.0092 55.8719 9.02809 56.1906 8.87187 55.9594C8.72189 55.7219 9.07808 55.1657 8.93436 54.9283C8.79063 54.6908 8.01576 54.822 7.87203 54.5783C7.73455 54.3346 8.15323 53.7722 8.02201 53.5285C7.89078 53.2848 7.36587 53.2411 7.23464 52.9911C7.10966 52.7411 7.07217 52.4412 6.94719 52.1912C6.82846 51.9413 6.86595 51.6101 6.75347 51.3539C6.64099 51.0977 6.40978 50.8914 6.30354 50.6352C6.19731 50.379 5.74114 50.2478 5.64115 49.9916C5.54117 49.7291 6.17856 49.1855 6.07858 48.923C5.98485 48.6606 5.34745 48.5856 5.25372 48.3231C5.16623 48.0607 4.82879 47.8607 4.74755 47.592C4.66632 47.3233 5.27871 46.8484 5.20373 46.5797C5.12874 46.311 5.0725 46.0423 5.00376 45.7673C4.93502 45.4986 4.54759 45.2986 4.4851 45.0299C4.42261 44.755 4.17265 44.5175 4.12266 44.2426C4.06642 43.9676 4.36012 43.6239 4.31637 43.349C4.26638 43.074 4.62882 42.7366 4.59133 42.4616C4.54759 42.1867 4.40386 41.9304 4.36637 41.6555C4.33512 41.3805 4.40386 41.0993 4.37886 40.8181C4.34762 40.5244 4.18515 40.262 4.16015 39.987C4.1414 39.7058 4.4476 39.4184 4.43511 39.1372C4.42261 38.856 3.39153 38.6185 3.38528 38.3373C3.37903 38.0561 3.2478 37.7686 3.2478 37.4874C3.2478 37.2062 3.73522 36.925 3.74147 36.6438C3.74772 36.3626 4.23514 36.1064 4.24764 35.8252C4.26013 35.544 4.24764 35.2753 4.26638 34.9941C4.28513 34.7129 3.81646 34.3942 3.84145 34.1192C3.86645 33.838 4.30388 33.6068 4.33512 33.3319C4.37262 33.0507 4.53509 32.8007 4.57258 32.5258C4.61632 32.2508 4.59133 31.9696 4.64132 31.6946C4.69131 31.4197 4.91627 31.1885 4.97252 30.9135C5.02876 30.6386 4.22264 30.1824 4.27888 29.9074C4.34137 29.6325 4.1789 29.295 4.24764 29.0263C4.31637 28.7576 5.11624 28.6764 5.19123 28.4014C5.26622 28.1327 4.88503 27.7266 4.96627 27.4579C5.0475 27.1891 5.67865 27.0954 5.76613 26.833C5.85362 26.5705 5.80988 26.2581 5.90986 25.9956C6.00359 25.7331 5.80988 25.3582 5.91611 25.0957C6.01609 24.8333 6.30354 24.6458 6.40978 24.3896C6.51601 24.1334 6.87845 23.9834 6.99093 23.7335C7.10341 23.4773 7.42836 23.3273 7.54709 23.0773C7.66582 22.8274 7.64082 22.5087 7.77205 22.2587C7.89703 22.0088 7.92827 21.7151 8.06575 21.4714C8.19698 21.2276 8.42819 21.0402 8.56567 20.7965C8.70314 20.5528 8.42194 20.0653 8.57192 19.8216C8.71564 19.5842 9.48426 19.7404 9.63424 19.5029C9.78421 19.2655 9.59674 18.8155 9.75297 18.5843C9.90919 18.3531 10.0654 18.1219 10.2279 17.8969C10.3904 17.672 9.99043 17.0221 10.1654 16.7971C10.3341 16.5722 10.8153 16.5847 10.9903 16.366C11.1652 16.1472 11.109 15.7286 11.2902 15.5161C11.4714 15.3036 11.7589 15.1662 11.9464 14.9599C12.1338 14.7475 12.3025 14.5163 12.4963 14.31C12.6837 14.1038 13.0899 14.0913 13.2836 13.8914C13.4773 13.6914 13.5398 13.3477 13.7398 13.154C13.9398 12.9603 14.321 12.9478 14.5272 12.7603C14.7334 12.5728 15.1146 12.5791 15.327 12.3979C15.5395 12.2104 15.502 11.7417 15.7145 11.5605C15.9269 11.3793 16.4081 11.523 16.6268 11.348C16.8455 11.1731 17.008 10.9356 17.2267 10.7669C17.4517 10.5982 17.6891 10.4607 17.9204 10.2982C18.1453 10.1357 18.5515 10.242 18.7827 10.0795C19.0139 9.92327 19.1577 9.64832 19.3889 9.49835C19.6263 9.34837 19.7201 8.99218 19.9638 8.84221C20.2012 8.69848 20.245 8.21731 20.4887 8.07983C20.7324 7.94236 21.1573 8.12358 21.401 7.9861C21.6447 7.85487 21.7197 7.39245 21.9697 7.26122C22.2196 7.13624 22.6633 7.39245 22.9133 7.26747C23.1632 7.14874 23.4944 7.20498 23.7506 7.0925C24.0068 6.98002 24.0443 6.36762 24.3005 6.26138C24.5568 6.15515 24.9629 6.39886 25.2254 6.29888C25.4878 6.1989 25.8565 6.40511 26.119 6.31138C26.3814 6.21764 26.5877 5.99893 26.8564 5.90519C27.1188 5.81771 27.2438 5.2928 27.5125 5.21156C27.7812 5.13032 28.1374 5.36154 28.4061 5.28655C28.6748 5.21156 28.9185 5.05534 29.1872 4.9866C29.4559 4.91786 29.6497 4.52417 29.9246 4.46168C30.1996 4.39919 30.5683 4.81163 30.8432 4.75539C31.1182 4.69915 31.3056 4.19298 31.5806 4.14299C31.8555 4.093 32.1805 4.33671 32.4554 4.29921C32.7304 4.25547 32.9366 3.64307 33.2116 3.60558C33.4865 3.57433 33.8739 4.48668 34.1489 4.46168C34.4239 4.43669 34.6676 4.01801 34.9425 3.99926C35.2237 3.98051 35.4924 3.88053 35.7736 3.86803C36.0548 3.85554 36.336 4.03051 36.6172 4.01801C36.8984 4.01176 37.1734 3.74305 37.4546 3.74305C37.7358 3.74305 37.9983 4.43669 38.2795 4.44294C38.5607 4.44919 38.8419 4.043 39.1231 4.06175C39.4043 4.07425 39.7355 3.28688 40.0167 3.30563C40.2979 3.32437 40.5853 3.40561 40.8603 3.43061C41.1415 3.4556 41.3727 3.96802 41.6477 4.00551C41.9289 4.043 42.2663 3.68056 42.5413 3.71806C42.8162 3.7618 43.0162 4.33046 43.2911 4.3742C43.5661 4.42419 43.9098 4.13049 44.1847 4.18673C44.4597 4.24297 44.5472 5.14282 44.8221 5.20531C45.0971 5.2678 45.522 4.6804 45.7907 4.74914C46.0594 4.81788 46.3656 4.78663 46.6343 4.86162C46.903 4.93661 47.0405 5.46777 47.303 5.549C47.5717 5.63024 48.0403 5.08658 48.309 5.17407C48.5778 5.26155 48.6715 5.84895 48.9339 5.94269C49.1964 6.03642 49.3339 6.4551 49.5901 6.55509C49.8525 6.65507 50.3462 6.18015 50.6024 6.28638C50.8586 6.39261 51.2461 6.22389 51.5023 6.34262C51.7585 6.4551 51.696 7.25497 51.9522 7.3737C52.2021 7.49243 52.4709 7.57992 52.7208 7.70489C52.9708 7.82987 53.2145 7.9611 53.4582 8.09233C53.7019 8.22356 53.8269 8.55475 54.0706 8.69848C54.3143 8.83596 54.7017 8.72348 54.9392 8.8672C55.1767 9.01093 55.6328 8.81721 55.8703 8.96719C56.1077 9.11716 56.4639 9.10466 56.6951 9.26089C56.9264 9.41711 56.9764 9.84829 57.2013 10.0108C57.4263 10.1732 57.82 10.1232 58.0449 10.2982C58.2699 10.4669 58.3074 10.8856 58.5261 11.0606C58.7448 11.2356 59.1822 11.1543 59.3947 11.3355C59.6072 11.5168 59.1135 12.5166 59.3197 12.7041C59.5322 12.8915 60.1008 12.6666 60.3008 12.854C60.507 13.0415 60.7445 13.1977 60.9444 13.3977C61.1444 13.5914 61.0319 14.0913 61.2256 14.2913C61.4194 14.4913 61.8505 14.46 62.038 14.6662C62.2255 14.8725 62.7941 14.7412 62.9753 14.9537C63.1628 15.1662 63.5253 15.2349 63.7002 15.4536C63.8815 15.6661 63.3315 16.4847 63.5065 16.7034C63.6815 16.9221 64.4314 16.6971 64.6001 16.9159C64.7688 17.1408 64.6501 17.5782 64.8125 17.8095C64.975 18.0344 64.7313 18.5406 64.8875 18.7718C65.0438 19.003 65.6187 18.953 65.7686 19.1842C65.9186 19.4217 65.6124 19.9404 65.7561 20.1778C65.8999 20.4153 66.9872 20.0966 67.1247 20.3403C67.2621 20.584 66.406 21.3901 66.5373 21.6338C66.6685 21.8775 66.9372 22.04 67.0684 22.29C67.1934 22.5399 68.1932 22.3587 68.312 22.6087C68.4307 22.8586 67.5121 23.6022 67.6246 23.8585C67.7371 24.1147 68.7244 23.9834 68.8306 24.2459C68.9369 24.5021 68.3807 25.0333 68.4807 25.2957C68.5807 25.5582 69.2618 25.5957 69.3618 25.8581C69.4555 26.1206 69.4305 26.433 69.518 26.7017C69.6055 26.9642 69.4118 27.3266 69.493 27.5891C69.5742 27.8578 69.3305 28.214 69.4055 28.4827C69.4805 28.7514 69.9867 28.9014 70.0554 29.1701C70.1242 29.4388 69.7555 29.8137 69.818 30.0824C69.8804 30.3574 70.7366 30.4574 70.7928 30.7323C70.849 31.0073 69.9992 31.4447 70.0492 31.7259C70.0992 32.0008 70.4741 32.2133 70.5178 32.4883C70.5616 32.7632 71.1427 32.9694 71.1802 33.2444C71.2115 33.5193 71.4927 33.7818 71.5239 34.063C71.5489 34.338 70.5928 34.7066 70.6116 34.9879C70.6303 35.2691 70.7428 35.5315 70.7553 35.8127C70.7678 36.0939 71.6677 36.3439 71.6802 36.6251C71.6989 36.9125 71.6864 37.2062 71.6864 37.4874Z" fill="url(#paint1_radial)"/>
<path d="M10.378 33.8257C10.378 33.8257 20.2576 41.4119 20.395 41.8618C20.5325 42.3118 15.4584 47.0547 10.5654 42.668C6.34112 38.8936 9.96552 33.9257 10.378 33.8257Z" fill="#FCDA00"/>
<path d="M10.5154 34.0692C10.5154 34.0692 20.0701 41.2493 20.2076 41.668C20.345 42.0866 15.6271 46.3297 10.8841 42.1991C6.7973 38.6372 10.128 34.1505 10.5154 34.0692Z" fill="#FFF59D"/>
<path d="M13.6025 37.9437L9.95933 38.1811C9.8928 38.1855 9.82605 38.1767 9.76294 38.1552C9.69983 38.1336 9.64162 38.0998 9.59165 38.0557C9.54169 38.0115 9.50096 37.9579 9.47183 37.8979C9.4427 37.8379 9.42574 37.7728 9.42192 37.7062C9.39068 37.2563 9.41567 36.5877 9.70937 36.0002C9.94058 35.5441 10.1593 35.2129 10.3343 34.9817C10.503 34.7567 10.8217 34.7192 11.0404 34.8879L13.8774 37.0376C14.2461 37.3188 14.0711 37.9124 13.6025 37.9437Z" fill="url(#paint2_linear)"/>
<path d="M11.7715 42.0306C11.7715 42.0306 11.0091 41.6744 10.353 40.7745C9.96553 40.2434 9.87179 39.6497 9.85929 39.256C9.85304 38.9998 10.028 38.7811 10.278 38.7374L13.8836 38.1125C14.346 38.0313 14.6585 38.5687 14.3648 38.9311L11.8465 42.0431L11.7715 42.0306Z" fill="url(#paint3_linear)"/>
<path d="M12.4901 42.8366C12.8775 43.1866 13.6586 43.649 15.0646 43.474C15.3209 43.4428 15.5146 43.2116 15.5021 42.9491L15.3521 39.8621C15.3271 39.3935 14.7397 39.206 14.4522 39.5747L12.4338 42.1493C12.2714 42.3617 12.2901 42.6617 12.4901 42.8366Z" fill="url(#paint4_linear)"/>
<path d="M15.6146 39.962L15.977 42.8115C16.0208 43.1364 16.327 43.3551 16.6457 43.2739C17.2456 43.1302 18.2204 42.799 19.164 42.0679C19.4514 41.8491 19.4577 41.418 19.1702 41.193L16.7331 39.3121C16.2395 38.9434 15.5333 39.3433 15.6146 39.962Z" fill="url(#paint5_linear)"/>
<path d="M51.6335 54.6599C51.6335 54.6599 57.7138 40.4685 58.2137 40.1685C58.7136 39.8686 65.9624 44.4991 62.2005 51.7229C58.9573 57.9468 51.8835 55.1223 51.6335 54.6599Z" fill="#FCDA00"/>
<path d="M51.8898 54.4098C51.8898 54.4098 57.5826 40.7371 58.0387 40.4434C58.5012 40.1497 65.0438 44.5115 61.5319 51.4791C58.5137 57.4781 52.1085 54.8535 51.8898 54.4098Z" fill="#FFF59D"/>
<path d="M55.5954 49.5229L57.0014 53.8284C57.1076 54.1596 56.9264 54.5095 56.5952 54.622C56.064 54.797 55.2517 54.972 54.4581 54.797C53.8394 54.6595 53.3707 54.497 53.0458 54.3596C52.9699 54.3281 52.9009 54.2819 52.8431 54.2235C52.7852 54.1652 52.7395 54.0959 52.7087 54.0197C52.6778 53.9435 52.6625 53.8619 52.6635 53.7797C52.6645 53.6975 52.6819 53.6164 52.7146 53.541L54.4206 49.4791C54.6455 48.9417 55.4142 48.973 55.5954 49.5229Z" fill="url(#paint6_linear)"/>
<path d="M61.057 50.4603C61.057 50.4603 60.8633 51.4789 59.9822 52.5474C59.4635 53.1786 58.7824 53.4723 58.3137 53.6035C58.0075 53.691 57.6888 53.5473 57.5638 53.2598L55.7079 49.123C55.4704 48.5918 56.0203 48.0482 56.5452 48.2919L61.0507 50.3728L61.057 50.4603Z" fill="url(#paint7_linear)"/>
<path d="M61.8069 49.3605C62.1131 48.7918 62.4255 47.7107 61.7819 46.0735C61.6632 45.7736 61.3257 45.6173 61.0195 45.7111L57.3576 46.8359C56.8015 47.0046 56.7577 47.7732 57.2889 48.0044L61.0008 49.6417C61.307 49.7666 61.6569 49.6479 61.8069 49.3605Z" fill="url(#paint8_linear)"/>
<path d="M57.4014 46.4859L60.7134 45.1737C61.0883 45.0237 61.2571 44.5863 61.0696 44.2301C60.7134 43.5552 60.0135 42.4866 58.8512 41.5743C58.495 41.2993 57.9764 41.418 57.8014 41.8305L56.2891 45.3361C55.9767 46.0485 56.6828 46.7734 57.4014 46.4859Z" fill="url(#paint9_linear)"/>
<path d="M60.8508 22.815C60.8508 22.815 46.9531 18.9531 46.6094 18.5282C46.2657 18.1033 49.6527 10.8108 56.814 13.3978C62.9817 15.6225 61.2507 22.5276 60.8508 22.815Z" fill="#FCDA00"/>
<path d="M60.5945 22.6086C60.5945 22.6086 47.2218 19.0404 46.8906 18.653C46.5594 18.2656 49.7838 11.6604 56.6764 14.035C62.6067 16.0909 60.9757 22.3524 60.5945 22.6086Z" fill="#FFF59D"/>
<path d="M55.6017 19.7904L59.4136 17.9532C59.4828 17.9191 59.5581 17.8992 59.6351 17.8946C59.7121 17.89 59.7892 17.9008 59.862 17.9264C59.9347 17.952 60.0016 17.9919 60.0588 18.0437C60.1159 18.0955 60.1621 18.1583 60.1947 18.2282C60.4197 18.6968 60.6884 19.428 60.6259 20.1841C60.5759 20.7715 60.4822 21.2277 60.4009 21.5464C60.36 21.6961 60.2614 21.8236 60.1267 21.9009C59.9921 21.9782 59.8323 21.999 59.6823 21.9588L55.7017 20.884C55.1768 20.7403 55.1143 20.0216 55.6017 19.7904Z" fill="url(#paint10_linear)"/>
<path d="M55.7891 14.6101C55.7891 14.6101 56.7577 14.6663 57.8575 15.3475C58.5074 15.7474 58.8636 16.3411 59.0448 16.7597C59.1636 17.0285 59.0698 17.3472 58.8199 17.4971L55.2205 19.728C54.758 20.0155 54.1894 19.5718 54.3456 19.0531L55.7079 14.6226L55.7891 14.6101Z" fill="url(#paint11_linear)"/>
<path d="M54.6706 14.0538C54.1019 13.8413 53.0646 13.6851 51.6273 14.485C51.3649 14.6349 51.2586 14.9661 51.3899 15.2348L52.8834 18.4843C53.1083 18.978 53.827 18.9217 53.9769 18.4031L55.0268 14.7599C55.0687 14.619 55.0552 14.4674 54.9889 14.3361C54.9227 14.2048 54.8088 14.1038 54.6706 14.0538Z" fill="url(#paint12_linear)"/>
<path d="M52.5647 18.4969L50.9399 15.5911C50.7587 15.2661 50.3275 15.1599 50.0213 15.3786C49.1372 16.0169 48.3929 16.8293 47.8342 17.7657C47.6217 18.1282 47.7967 18.5968 48.2029 18.7093L51.6336 19.6717C52.3334 19.8654 52.9146 19.1218 52.5647 18.4969Z" fill="url(#paint13_linear)"/>
<path d="M32.3056 26.3705C31.612 26.0081 30.7621 25.9831 30.0122 26.208C29.4373 26.383 28.8937 26.708 28.5187 27.1766C28.1438 27.6453 27.9376 28.2702 28.0376 28.8639C28.1625 29.645 28.7937 30.2949 29.5498 30.5323C30.2997 30.776 31.1433 30.6386 31.8432 30.2636C33.4617 29.3888 34.3428 27.4391 32.3056 26.3705ZM31.3058 29.3325C30.9496 29.5262 30.5184 29.595 30.1372 29.47C29.756 29.345 29.4311 29.0138 29.3686 28.6139C29.3186 28.3077 29.4248 27.9952 29.6186 27.7515C29.8123 27.5078 30.0872 27.3454 30.3809 27.2579C30.7684 27.1391 31.1995 27.1516 31.5557 27.3391C32.5868 27.889 32.1369 28.8826 31.3058 29.3325Z" fill="black"/>
<path d="M52.6022 44.7987C51.9086 44.4363 51.0587 44.4113 50.3089 44.6363C49.734 44.8112 49.1903 45.1362 48.8154 45.6049C48.4404 46.0735 48.2342 46.6984 48.3342 47.2921C48.4592 48.0732 49.0903 48.7231 49.8464 48.9606C50.5963 49.2043 51.4399 49.0668 52.1398 48.6918C53.7521 47.8107 54.6332 45.8611 52.6022 44.7987ZM51.5962 47.7545C51.24 47.9482 50.8088 48.017 50.4276 47.892C50.0464 47.767 49.7215 47.4358 49.659 47.0359C49.609 46.7297 49.7152 46.4172 49.9089 46.1735C50.1027 45.9361 50.3776 45.7673 50.6713 45.6798C51.0587 45.5611 51.4899 45.5736 51.8461 45.7611C52.8772 46.311 52.4273 47.3108 51.5962 47.7545Z" fill="black"/>
<path d="M34.4802 9.6486C33.7865 9.28616 32.9367 9.26116 32.1868 9.48612C31.6119 9.6611 31.0682 9.98604 30.6933 10.4547C30.3184 10.9234 30.1121 11.5483 30.2121 12.1419C30.3371 12.9231 30.9683 13.5729 31.7244 13.8104C32.4743 14.0541 33.3179 13.9166 34.0177 13.5417C35.63 12.6606 36.5111 10.7109 34.4802 9.6486ZM33.4741 12.6044C33.1179 12.7981 32.6867 12.8668 32.3055 12.7418C31.9243 12.6169 31.5994 12.2857 31.5369 11.8857C31.4869 11.5795 31.5932 11.2671 31.7869 11.0234C31.9806 10.7859 32.2555 10.6172 32.5492 10.5297C32.9304 10.4172 33.3616 10.4297 33.7178 10.6172C34.7551 11.1608 34.3052 12.1607 33.4741 12.6044Z" fill="black"/>
<path d="M57.2889 23.5523C57.1889 22.7837 56.589 22.1213 55.8517 21.8651C55.1205 21.6089 54.2832 21.7151 53.5895 22.0651C51.9648 22.8837 51.04 24.7709 53.0146 25.8769C53.6895 26.2581 54.5206 26.3019 55.2643 26.1019C55.8329 25.9457 56.3766 25.6457 56.7578 25.1958C57.1452 24.7459 57.3639 24.1397 57.2889 23.5523ZM55.7079 24.5959C55.5142 24.8271 55.233 24.9771 54.9456 25.0583C54.5644 25.1646 54.1394 25.1396 53.7957 24.9458C52.7897 24.3772 53.2583 23.4148 54.0894 22.9962C54.4456 22.8149 54.8706 22.765 55.2455 22.8962C55.6204 23.0274 55.9266 23.3649 55.9766 23.7585C56.0141 24.0585 55.9016 24.3647 55.7079 24.5959Z" fill="black"/>
<path d="M21.7948 46.6736C20.1888 45.3301 17.7705 45.2114 17.4955 47.8047C17.4018 48.6921 17.733 49.5919 18.2829 50.2918C18.7078 50.8229 19.2702 51.2604 19.9264 51.4603C20.5763 51.6603 21.3199 51.6166 21.901 51.2666C22.6697 50.8105 23.0946 49.8731 23.0321 48.9795C22.9759 48.0797 22.4822 47.2485 21.7948 46.6736ZM21.0887 49.9606C20.7887 50.1356 20.4138 50.1606 20.0764 50.0606C19.7452 49.9606 19.4515 49.7356 19.239 49.4607C18.9578 49.1045 18.7891 48.6421 18.8328 48.1921C18.9703 46.8674 20.2076 46.9298 21.0262 47.6172C21.3761 47.9109 21.6323 48.3359 21.6573 48.792C21.7011 49.2482 21.4824 49.7294 21.0887 49.9606Z" fill="black"/>
<path d="M8.59075 32.0322C8.23456 29.1889 12.1964 26.0831 17.1831 28.4328C22.1697 30.7824 28.4249 34.6567 27.825 36.7251C27.2251 38.7935 9.74056 41.2119 8.59075 32.0322Z" fill="url(#paint14_linear)"/>
<path d="M12.184 34.3381C12.7276 34.7631 13.3963 35.0755 14.0337 35.3192C15.4022 35.8504 16.7894 36.3066 18.1955 36.7002C19.2203 36.9877 21.7574 37.2814 23.2509 36.6877C19.3828 36.1566 15.4334 36.1066 12.184 34.3381Z" fill="#EE9565"/>
<path d="M11.6965 33.8693C11.8403 34.038 12.0027 34.1942 12.184 34.3379C15.4334 36.1001 19.389 36.1564 23.2446 36.6875C23.3258 36.6563 23.4008 36.6188 23.4758 36.5813C19.5827 35.6377 15.2272 35.8439 11.6965 33.8693Z" fill="#BA6E4C"/>
<path d="M16.0333 30.0823C14.9273 29.8761 13.7587 29.7698 12.7401 30.1823C11.7216 30.5947 10.9217 31.6695 11.1342 32.7881C11.2154 33.2068 11.4154 33.5567 11.6903 33.8691C15.2272 35.8438 19.8952 35.019 23.4758 36.5812C24.307 36.1563 24.7069 35.3876 24.082 34.0691C23.6571 33.163 22.7572 32.5819 21.8761 32.1194C20.0416 31.1514 18.072 30.4647 16.0333 30.0823Z" fill="#F6A67D"/>
<path d="M40.4855 6.9428C43.6412 6.25541 47.5218 10.3922 45.3909 16.2163C43.26 22.0403 39.5419 29.4515 37.1548 28.9891C34.7677 28.5267 30.2997 9.16118 40.4855 6.9428Z" fill="url(#paint15_linear)"/>
<path d="M38.2545 11.2043C37.8359 11.8542 37.5484 12.6416 37.3359 13.3727C36.8798 14.96 36.5048 16.5597 36.2049 18.1782C35.9862 19.353 35.9112 22.2338 36.7298 23.846C36.9423 19.4655 36.6048 15.0287 38.2545 11.2043Z" fill="#EE9565"/>
<path d="M38.7295 10.6107C38.5546 10.7919 38.3921 10.9857 38.2546 11.2044C36.6049 15.0287 36.9423 19.4655 36.7299 23.846C36.7736 23.9335 36.8236 24.0147 36.8736 24.096C37.5485 19.6405 36.8736 14.7788 38.7295 10.6107Z" fill="#BA6E4C"/>
<path d="M43.4162 15.0975C43.5349 13.8352 43.5349 12.5166 42.9725 11.4168C42.4038 10.317 41.1228 9.52963 39.8918 9.87958C39.4356 10.0108 39.0544 10.2733 38.7357 10.6107C36.8735 14.7725 38.2733 19.9279 36.8798 24.1022C37.4359 24.9958 38.342 25.3645 39.7605 24.5271C40.7354 23.9585 41.2978 22.8899 41.7227 21.8526C42.6226 19.6904 43.1975 17.4033 43.4162 15.0975Z" fill="#F6A67D"/>
<path d="M65.1564 25.5457C67.6247 26.9517 67.7247 31.9384 62.9005 34.4942C58.0763 37.05 51.2837 39.6996 50.0027 37.9936C48.7154 36.2876 57.1952 21.0027 65.1564 25.5457Z" fill="url(#paint16_linear)"/>
<path d="M61.1883 27.0205C60.5322 27.1955 59.8823 27.5454 59.3136 27.9016C58.0844 28.6675 56.8936 29.4934 55.7454 30.3762C54.9143 31.0136 53.1646 32.8508 52.7522 34.388C55.4705 31.6447 57.8576 28.5453 61.1883 27.0205Z" fill="#EE9565"/>
<path d="M61.8507 26.9143C61.632 26.9331 61.407 26.9643 61.1883 27.0205C57.8576 28.5515 55.4705 31.651 52.7459 34.3881C52.7209 34.4693 52.7084 34.5568 52.6897 34.638C55.7642 32.1134 58.1825 28.539 61.8507 26.9143Z" fill="#BA6E4C"/>
<path d="M62.2755 32.6007C63.0942 31.8446 63.8753 30.9822 64.1502 29.9324C64.4252 28.8826 64.0565 27.6078 63.0379 27.1141C62.663 26.9267 62.2568 26.8829 61.8506 26.9079C58.1825 28.5326 56.0641 32.7257 52.6959 34.6316C52.5334 35.544 52.9084 36.3126 54.3269 36.6063C55.2955 36.8063 56.2953 36.4376 57.1827 36.0189C59.0511 35.1378 60.7758 33.9817 62.2755 32.6007Z" fill="#F6A67D"/>
<path d="M51.9273 64.1892C50.6775 67.145 45.0972 67.9323 41.5853 62.8644C38.0734 57.7965 34.174 50.529 35.9175 48.8605C37.6547 47.1858 55.9579 54.647 51.9273 64.1892Z" fill="url(#paint17_linear)"/>
<path d="M49.7401 59.934C49.4527 59.2217 48.9777 58.5405 48.5028 57.9469C47.4758 56.6737 46.3894 55.4496 45.2471 54.2787C44.416 53.4289 42.1226 51.7167 40.3417 51.4604C43.7786 54.1413 47.578 56.4034 49.7401 59.934Z" fill="#EE9565"/>
<path d="M49.9527 60.665C49.9027 60.4213 49.8402 60.1776 49.7465 59.9339C47.5843 56.4032 43.7849 54.1349 40.3418 51.4541C40.2418 51.4416 40.1481 51.4291 40.0543 51.4291C43.2913 54.5348 47.6343 56.7719 49.9527 60.665Z" fill="#BA6E4C"/>
<path d="M43.6225 61.9022C44.5786 62.7209 45.6534 63.4832 46.8719 63.6457C48.0905 63.8144 49.4653 63.227 49.8839 62.021C50.0402 61.5711 50.0402 61.1149 49.9527 60.665C47.6343 56.7719 42.6414 54.9534 40.0543 51.429C39.0107 51.3728 38.1921 51.8914 38.0547 53.5286C37.9609 54.6472 38.5046 55.7158 39.0982 56.6531C40.3418 58.6278 41.8728 60.4087 43.6225 61.9022Z" fill="#F6A67D"/>
<path d="M27.8313 25.8769C27.7626 25.9206 25.6317 25.2082 24.5506 24.9958C23.4695 24.777 21.9573 24.952 22.051 25.302C22.1448 25.6519 22.7384 25.8394 22.7384 25.8394C22.7384 25.8394 21.976 26.3955 22.6447 26.5892C23.3133 26.783 25.9629 27.0329 25.9629 27.0329C25.9629 27.0329 23.9132 27.2141 24.7131 27.3766C25.5067 27.5391 27.5501 27.5891 27.9688 27.3766C28.3875 27.1579 28.1875 27.2141 28.1875 27.2141L27.8313 25.8769Z" fill="#ED0000"/>
<path d="M30.4683 23.5962C30.4683 23.5962 28.4499 24.871 27.9063 25.3584C27.3626 25.8458 27.4126 27.2956 28.3812 27.6955C29.3498 28.0954 30.4621 27.9267 31.4994 27.3956C32.5367 26.8644 32.9117 25.5771 32.9117 25.5771L30.4683 23.5962Z" fill="#ED0000"/>
<path d="M24.5756 19.678C24.6006 19.7405 24.6256 19.778 24.6443 19.828C24.6693 19.8842 24.6881 19.9342 24.7068 19.9904C24.7443 20.1029 24.7756 20.2154 24.8068 20.3279C24.863 20.5528 24.9068 20.784 24.9505 21.009C25.038 21.4652 25.113 21.9276 25.1505 22.3963L25.088 22.3213C25.3567 22.3963 25.6192 22.4963 25.8754 22.6025C26.1316 22.7087 26.3878 22.8275 26.619 22.9899L26.5628 22.9837L27.1127 22.8962C27.1689 22.8899 27.2252 22.9274 27.2314 22.9837C27.2376 23.0399 27.2002 23.0962 27.1439 23.1024L26.594 23.1899H26.569L26.5378 23.1836C26.2566 23.1274 26.0004 23.0149 25.7504 22.9024C25.4932 22.7921 25.2446 22.6626 25.0068 22.515L24.9943 22.5088C24.9813 22.5019 24.97 22.4921 24.9613 22.4802C24.9527 22.4683 24.9468 22.4545 24.9443 22.44C24.7818 21.9963 24.6506 21.5464 24.5381 21.0965C24.4819 20.8715 24.4256 20.6403 24.3881 20.4091C24.3694 20.2904 24.3569 20.1779 24.3444 20.0592C24.3444 20.0029 24.3381 19.9404 24.3381 19.8779C24.3381 19.8155 24.3381 19.7405 24.3506 19.6842C24.3631 19.628 24.4194 19.5905 24.4819 19.603C24.5319 19.6217 24.5631 19.6467 24.5756 19.678Z" fill="#E53935"/>
<path d="M24.0132 19.9342L24.1381 22.0838L24.1256 22.0026L24.4631 23.8648L24.3881 23.7835L25.2692 24.096C25.3317 24.1147 25.3629 24.1835 25.3379 24.246C25.3192 24.3084 25.2505 24.3397 25.188 24.3147L24.3069 24.0022C24.2914 23.996 24.2773 23.9867 24.2655 23.9749C24.2536 23.9631 24.2443 23.949 24.2381 23.9335L24.2319 23.921L23.5757 22.1463C23.5695 22.1213 23.5632 22.0963 23.5632 22.0713L23.7632 19.9279C23.7694 19.8654 23.8257 19.8154 23.8944 19.8217C23.9632 19.8279 24.0069 19.8779 24.0132 19.9342Z" fill="#E53935"/>
<path d="M23.2571 20.5218C23.2321 20.7218 23.1946 20.9155 23.1508 21.1092C23.1071 21.3029 23.0634 21.4966 23.0134 21.6841C22.9634 21.8778 22.9071 22.0653 22.8509 22.2528C22.8197 22.3465 22.7822 22.4402 22.7384 22.5277C22.6947 22.6152 22.6384 22.7027 22.5697 22.7839V22.7277C22.6822 22.9464 22.7572 23.1714 22.8197 23.4026C22.8821 23.6338 22.9321 23.865 22.9446 24.115C22.9446 24.1712 22.9009 24.2212 22.8446 24.2274C22.8009 24.2274 22.7634 24.2087 22.7447 24.1712C22.6322 23.9525 22.5572 23.7275 22.4947 23.4963C22.4322 23.2651 22.3822 23.0276 22.3697 22.7839V22.7277C22.3572 22.6215 22.3572 22.5215 22.3697 22.4215C22.3822 22.3215 22.401 22.2278 22.426 22.1278C22.4822 21.9403 22.5384 21.7528 22.6072 21.5654C22.7332 21.1903 22.8814 20.8231 23.0509 20.4656C23.0759 20.4156 23.1383 20.3906 23.1946 20.4156C23.2383 20.4343 23.2633 20.4781 23.2571 20.5218Z" fill="#E53935"/>
<path d="M23.3258 20.0217C23.0196 20.3779 22.6822 20.7029 22.3322 21.0153C22.1572 21.1715 21.9823 21.3278 21.8011 21.4715C21.6136 21.6152 21.4199 21.7465 21.1887 21.8339L21.2261 21.7714C21.1887 22.1839 21.1199 22.5963 21.0324 23.0025C21.0137 23.1025 20.9887 23.2087 20.9637 23.3087L20.9262 23.4587C20.9075 23.5212 20.9075 23.5149 20.9075 23.5524C20.895 23.6399 20.895 23.7461 20.8887 23.8461C20.8825 23.9461 20.8762 24.0461 20.8575 24.1523C20.8512 24.2148 20.795 24.2585 20.7325 24.2523C20.7108 24.249 20.6904 24.2397 20.6738 24.2253C20.6572 24.2109 20.645 24.1921 20.6387 24.171C20.6138 24.0711 20.595 23.9648 20.5763 23.8649C20.5638 23.7586 20.5513 23.6586 20.545 23.5462C20.5388 23.4774 20.57 23.3774 20.5763 23.3399L20.6075 23.19C20.6262 23.09 20.6512 22.9962 20.67 22.8963C20.7637 22.5026 20.8637 22.1214 21.0074 21.734L21.0449 21.6715C21.1699 21.459 21.3324 21.2903 21.5011 21.1278C21.6761 20.9716 21.8573 20.8279 22.0385 20.6779C22.401 20.3842 22.7759 20.103 23.1821 19.8593C23.2321 19.828 23.3071 19.8405 23.3383 19.8968C23.3633 19.928 23.357 19.9842 23.3258 20.0217Z" fill="#E53935"/>
<path d="M30.4246 19.6216C29.9184 19.4404 29.3623 20.0716 29.0248 20.359C28.5312 20.7777 28.0812 21.2339 27.6625 21.7213C27.6376 21.7463 27.6126 21.765 27.5876 21.79C27.5688 21.8088 27.5563 21.8338 27.5563 21.8525C27.5188 21.8963 27.4751 21.94 27.4376 21.99C27.3501 22.0962 27.5251 22.2087 27.6063 22.1087C27.6625 22.04 27.725 21.9712 27.7813 21.9025C28.6749 21.2026 29.5685 20.5027 30.4558 19.8028C30.5246 19.7466 30.4996 19.6466 30.4246 19.6216Z" fill="#E53935"/>
<path d="M31.6557 20.5339C31.1183 20.1652 30.2684 20.7589 29.781 21.0026C29.0749 21.3588 28.4062 21.7712 27.7688 22.2336C27.7314 22.2524 27.6939 22.2711 27.6626 22.2899C27.6314 22.3086 27.6126 22.3274 27.6064 22.3524C27.5501 22.3961 27.4876 22.4399 27.4252 22.4836C27.2939 22.5836 27.4627 22.771 27.5939 22.6773C27.6814 22.6086 27.7751 22.5461 27.8626 22.4836L31.6495 20.7589C31.7307 20.7151 31.7369 20.5902 31.6557 20.5339Z" fill="#E53935"/>
<path d="M32.2494 21.5901C31.7932 21.1152 30.8309 21.5589 30.2935 21.7214C29.5186 21.9526 28.7687 22.2525 28.0376 22.6025C28.0001 22.615 27.9563 22.6275 27.9189 22.64C27.8814 22.6525 27.8626 22.6712 27.8439 22.6962C27.7751 22.7274 27.7064 22.7587 27.6376 22.7962C27.4877 22.8712 27.6127 23.0961 27.7626 23.0211C27.8626 22.9712 27.9688 22.9212 28.0688 22.8712C29.4436 22.5212 30.8184 22.165 32.1869 21.8151C32.2869 21.7901 32.3181 21.6589 32.2494 21.5901Z" fill="#E53935"/>
<path d="M32.893 22.6086C32.4618 22.04 31.3745 22.3649 30.7808 22.4524C29.9247 22.5774 29.0811 22.7836 28.25 23.046L28.1188 23.0648C28.0813 23.071 28.0563 23.0898 28.0375 23.1148C27.9625 23.1398 27.8813 23.1648 27.8063 23.1898C27.6376 23.246 27.7438 23.5085 27.9125 23.446C28.025 23.4085 28.1438 23.371 28.2625 23.3335C29.7747 23.171 31.2932 23.0023 32.8055 22.8398C32.9055 22.8273 32.9555 22.6898 32.893 22.6086Z" fill="#E53935"/>
<path d="M34.9426 23.3524C34.9426 23.3524 34.9988 24.4335 34.3052 25.1334C33.6053 25.8332 33.0117 26.2144 32.3055 25.8895C31.5994 25.5645 30.787 24.9584 30.2184 23.6586L31.5619 22.2776L34.9426 23.3524Z" fill="#ED0000"/>
<path d="M35.955 20.7339C35.955 20.7339 36.03 23.5584 35.3051 23.7209C34.574 23.8771 31.3745 22.4898 31.3745 22.4898L31.9119 21.1088L35.955 20.7339Z" fill="#ED0000"/>
<path d="M34.2303 17.1659C34.2303 17.1659 35.1989 17.9408 35.6925 19.1281C36.1925 20.3154 36.3237 20.8153 36.3237 20.8153C36.3237 20.8153 35.4738 21.3402 33.9491 21.5714C32.4243 21.8026 31.7307 21.8276 31.7307 21.8276L31.1808 20.3904L34.2303 17.1659Z" fill="#ED0000"/>
<path d="M31.5432 15.3975C31.5432 15.3975 33.6991 16.2098 34.224 16.741C34.7426 17.2721 34.1552 18.5969 33.1304 19.5405C32.1056 20.4841 31.6931 20.6841 31.1682 20.8278C30.6433 20.9715 30.0559 19.8967 30.0559 19.8967L31.5432 15.3975Z" fill="#ED0000"/>
<path d="M28.6874 15.4786C28.6874 15.4786 30.6496 14.8912 31.1932 15.1974C31.7369 15.5036 32.0556 16.6847 31.5432 18.4656C31.0682 20.1279 30.837 20.3216 30.1434 20.2466C29.3185 20.1528 28.1125 20.0841 27.6251 19.3905C27.1439 18.6968 28.6874 15.4786 28.6874 15.4786Z" fill="#ED0000"/>
<path d="M28.6874 15.4787C28.6874 15.4787 29.1873 17.2221 28.5999 18.5157C28.0125 19.8092 26.6877 20.3653 22.2947 20.7715C17.7392 21.1902 16.2832 20.5778 16.2832 20.5778L16.6707 19.9342L15.1897 20.0154L15.902 19.2843L14.9709 19.2155L18.7953 17.4471L16.9206 17.3658C16.9206 17.3658 21.1512 16.1723 23.6508 15.8036C26.1503 15.4349 27.2939 15.3974 28.6874 15.4787Z" fill="#ED0000"/>
<path d="M19.7702 18.1345C20.0808 18.1345 20.3326 17.8827 20.3326 17.5721C20.3326 17.2614 20.0808 17.0096 19.7702 17.0096C19.4596 17.0096 19.2078 17.2614 19.2078 17.5721C19.2078 17.8827 19.4596 18.1345 19.7702 18.1345Z" fill="black"/>
<path d="M48.1154 41.6429C48.1029 41.7179 46.3407 42.674 45.5471 43.2489C44.7472 43.8238 43.9411 44.9174 44.2285 45.0674C44.516 45.2173 44.9971 44.9486 44.9971 44.9486C44.9971 44.9486 44.8972 45.786 45.4346 45.4673C45.972 45.1486 47.7404 43.5614 47.7404 43.5614C47.7404 43.5614 46.6156 45.0111 47.203 44.5862C47.7904 44.1613 49.0715 42.8615 49.1839 42.4553C49.2964 42.0491 49.2089 42.2116 49.2089 42.2116L48.1154 41.6429Z" fill="#ED0000"/>
<path d="M48.2279 38.5374C48.2279 38.5374 47.8342 40.6308 47.8217 41.2807C47.8154 41.9305 48.7903 42.7804 49.6401 42.393C50.49 42.0055 51.0586 41.1744 51.3398 40.1746C51.6211 39.1748 51.0087 38.1437 51.0087 38.1437L48.2279 38.5374Z" fill="#ED0000"/>
<path d="M42.0853 40.0058C42.1415 40.0245 42.179 40.037 42.229 40.0557C42.279 40.0745 42.3227 40.0932 42.3727 40.112C42.4664 40.1557 42.5602 40.1995 42.6539 40.2495C42.8351 40.3494 43.0101 40.4619 43.1913 40.5682C43.5413 40.7869 43.8912 41.0181 44.2224 41.2805L44.1412 41.2743C44.3536 41.1431 44.5786 41.0306 44.8036 40.9306C45.0285 40.8244 45.2597 40.7306 45.5097 40.6806L45.4722 40.7119L45.7471 40.2995C45.7784 40.2557 45.8346 40.2432 45.8784 40.2745C45.9221 40.3057 45.9346 40.3619 45.9034 40.4057L45.6284 40.8181C45.6222 40.8244 45.6222 40.8306 45.6159 40.8306L45.5909 40.8494C45.3847 40.9931 45.1535 41.0993 44.9285 41.1931C44.6973 41.2868 44.4661 41.3743 44.2224 41.443H44.2099C44.1849 41.4493 44.1599 41.4493 44.1349 41.4368C43.7475 41.2743 43.3725 41.0868 43.0101 40.8806C42.8289 40.7744 42.6477 40.6744 42.4727 40.5619C42.3384 40.4765 42.2129 40.3781 42.0978 40.2682C42.054 40.2307 42.0103 40.187 41.979 40.1432C41.9478 40.0995 41.9603 40.037 42.004 40.0058C42.0228 39.9995 42.054 39.9933 42.0853 40.0058Z" fill="#E53935"/>
<path d="M41.9102 40.5306L43.3913 41.7554L43.335 41.7116L44.7598 42.624H44.6598L45.3972 42.2365C45.4223 42.2248 45.4509 42.2228 45.4774 42.2309C45.5039 42.239 45.5265 42.2565 45.5409 42.2803C45.5659 42.3303 45.5471 42.3927 45.4971 42.424L44.7598 42.8114C44.732 42.8226 44.7014 42.8248 44.6723 42.8177L44.6598 42.8114L43.1038 42.1615C43.082 42.1544 43.0626 42.1414 43.0476 42.124L41.7665 40.6868C41.729 40.643 41.729 40.5743 41.7728 40.5368C41.8103 40.4931 41.8665 40.4931 41.9102 40.5306Z" fill="#E53935"/>
<path d="M41.8352 41.3807C41.9477 41.5182 42.0539 41.6619 42.1539 41.8057C42.2539 41.9494 42.3539 42.0994 42.4476 42.2431C42.5413 42.3931 42.6288 42.543 42.7226 42.693C42.7663 42.768 42.8038 42.8492 42.835 42.9367C42.8663 43.018 42.8913 43.1054 42.8975 43.2054L42.86 43.1679C43.0725 43.2304 43.2662 43.3179 43.4537 43.4179C43.6411 43.5179 43.8286 43.6241 43.9973 43.7678C44.0348 43.7991 44.0411 43.8616 44.0098 43.8991C43.9848 43.9303 43.9473 43.9365 43.9099 43.9303C43.6974 43.8741 43.5037 43.7803 43.3162 43.6803C43.1287 43.5804 42.9413 43.4679 42.7725 43.3304L42.735 43.2929C42.6538 43.2367 42.5913 43.1742 42.5351 43.1054C42.4788 43.0367 42.4289 42.968 42.3789 42.893C42.2914 42.743 42.2039 42.5868 42.1226 42.4306C42.0414 42.2743 41.9602 42.1181 41.8852 41.9619C41.8102 41.8057 41.7415 41.6432 41.6727 41.4745C41.654 41.4245 41.679 41.3745 41.729 41.3557C41.7665 41.337 41.8102 41.3495 41.8352 41.3807Z" fill="#E53935"/>
<path d="M41.5478 41.0308C41.5916 41.4495 41.6041 41.8682 41.5978 42.2869C41.5916 42.4931 41.5916 42.7056 41.5728 42.9118C41.5541 43.118 41.5228 43.3242 41.4416 43.5304L41.4229 43.4679C41.6728 43.7429 41.8978 44.0366 42.1102 44.3428C42.1665 44.4178 42.2165 44.4928 42.2665 44.574L42.3415 44.6927C42.3727 44.7427 42.3664 44.7365 42.3914 44.7615C42.4414 44.824 42.5102 44.8864 42.5727 44.9552C42.6352 45.0239 42.6976 45.0864 42.7539 45.1614C42.7914 45.2051 42.7851 45.2676 42.7414 45.3051C42.7101 45.3301 42.6664 45.3364 42.6289 45.3176C42.5477 45.2739 42.4664 45.2239 42.3914 45.1739C42.3165 45.1177 42.2415 45.0677 42.1665 44.9989C42.1227 44.9614 42.0727 44.8802 42.0478 44.8552L41.9665 44.749C41.9165 44.674 41.8665 44.599 41.8165 44.5303C41.6166 44.2303 41.4291 43.9304 41.2604 43.6054L41.2416 43.5429C41.1791 43.3305 41.1666 43.1242 41.1604 42.9118C41.1604 42.7056 41.1791 42.4931 41.1916 42.2869C41.2229 41.8682 41.2666 41.4558 41.3479 41.0433C41.3604 40.9871 41.4104 40.9559 41.4666 40.9621C41.5103 40.9559 41.5416 40.9871 41.5478 41.0308Z" fill="#E53935"/>
<path d="M45.6034 36.1441C45.1784 36.3628 45.2534 37.1127 45.2347 37.5126C45.2097 38.0875 45.2347 38.6624 45.2972 39.2311V39.3186C45.2972 39.3436 45.3034 39.3623 45.3159 39.3811L45.3347 39.5373C45.3534 39.656 45.5346 39.6123 45.5159 39.4998C45.5034 39.4186 45.4971 39.3373 45.4846 39.2623C45.5721 38.25 45.6534 37.2439 45.7408 36.2316C45.7471 36.1566 45.6659 36.1129 45.6034 36.1441Z" fill="#E53935"/>
<path d="M46.9531 35.8938C46.3845 36.0251 46.2595 36.9374 46.122 37.4061C45.9283 38.081 45.7908 38.7746 45.7033 39.4745C45.6908 39.512 45.6846 39.5432 45.6721 39.5807C45.6658 39.612 45.6658 39.637 45.6783 39.6557C45.6721 39.7182 45.6596 39.7869 45.6533 39.8494C45.6408 39.9932 45.8658 39.9994 45.8783 39.8557L45.9158 39.562C46.3095 38.3872 46.6969 37.2124 47.0906 36.0376C47.1156 35.9563 47.0344 35.8751 46.9531 35.8938Z" fill="#E53935"/>
<path d="M48.0029 36.1439C47.4155 36.1502 47.1218 37.0563 46.8968 37.4999C46.5781 38.1436 46.3157 38.8185 46.1032 39.5121C46.0845 39.5434 46.072 39.5809 46.0532 39.6121C46.0407 39.6433 46.0407 39.6683 46.047 39.6933C46.0282 39.7558 46.0032 39.8246 45.9845 39.887C45.9408 40.0308 46.1657 40.087 46.2095 39.9433C46.2407 39.8433 46.2657 39.7496 46.2969 39.6496C46.9031 38.5373 47.5092 37.425 48.1091 36.3126C48.1529 36.2439 48.0841 36.1439 48.0029 36.1439Z" fill="#E53935"/>
<path d="M49.059 36.344C48.4216 36.2815 47.9717 37.1876 47.6718 37.6313C47.2343 38.2687 46.8531 38.9436 46.522 39.6435C46.497 39.6747 46.4782 39.7122 46.4532 39.7435C46.4345 39.7747 46.4282 39.7997 46.4345 39.8247C46.4032 39.8872 46.372 39.9559 46.3407 40.0184C46.272 40.1684 46.5095 40.2559 46.5719 40.1059C46.6157 40.0059 46.6657 39.9059 46.7094 39.8122C47.5218 38.7186 48.3342 37.6313 49.1465 36.5377C49.209 36.469 49.1465 36.3565 49.059 36.344Z" fill="#E53935"/>
<path d="M50.7899 35.4628C50.7899 35.4628 51.5336 36.0814 51.5648 36.9625C51.6023 37.8436 51.4836 38.4623 50.8462 38.731C50.2088 38.9997 49.3152 39.1559 48.1216 38.7372L48.0404 37.0188L50.7899 35.4628Z" fill="#ED0000"/>
<path d="M49.6902 33.207C49.6902 33.207 51.5836 34.8755 51.2462 35.4504C50.9087 36.0191 48.0529 37.2689 48.0529 37.2689L47.478 36.0753L49.6902 33.207Z" fill="#ED0000"/>
<path d="M46.3094 32.1633C46.3094 32.1633 47.403 32.0008 48.4841 32.4007C49.5652 32.8007 49.9713 33.0131 49.9713 33.0131C49.9713 33.0131 49.7964 33.888 49.0215 35.0253C48.2466 36.1626 47.8404 36.6313 47.8404 36.6313L46.5657 36.1189L46.3094 32.1633Z" fill="#ED0000"/>
<path d="M43.5225 32.8445C43.5225 32.8445 45.3659 31.9259 46.0283 31.9072C46.6907 31.8885 47.1968 33.082 47.1968 34.3255C47.1906 35.5691 47.0719 35.9628 46.8407 36.3877C46.6094 36.8126 45.5534 36.5502 45.5534 36.5502L43.5225 32.8445Z" fill="#ED0000"/>
<path d="M41.8352 34.7632C41.8352 34.7632 42.6476 33.1197 43.1787 32.9572C43.7099 32.7885 44.6722 33.2947 45.5283 34.7132C46.3282 36.0379 46.3157 36.3067 45.8408 36.7066C45.2784 37.1878 44.4973 37.9376 43.7536 37.8376C43.01 37.7377 41.8352 34.7632 41.8352 34.7632Z" fill="#ED0000"/>
<path d="M41.8352 34.7628C41.8352 34.7628 43.2849 35.4939 43.7661 36.6687C44.2535 37.8373 43.8098 39.0434 41.404 42.1678C38.9107 45.4048 37.6234 45.9859 37.6234 45.9859L37.4359 45.3423L36.586 46.3609L36.5423 45.4485L35.9299 46.0172L37.0985 42.4428L35.9049 43.6238C35.9049 43.6238 37.6984 40.1307 38.9731 38.2747C40.2479 36.4188 40.9353 35.6252 41.8352 34.7628Z" fill="#ED0000"/>
<path d="M37.7859 42.3678C38.062 42.3678 38.2858 42.1439 38.2858 41.8678C38.2858 41.5917 38.062 41.3679 37.7859 41.3679C37.5098 41.3679 37.286 41.5917 37.286 41.8678C37.286 42.1439 37.5098 42.3678 37.7859 42.3678Z" fill="black"/>
<path d="M24.2694 54.8345C24.2444 54.7657 25.2568 53.041 25.6504 52.1349C26.0379 51.2288 26.1754 49.879 25.8504 49.8978C25.5255 49.9165 25.2505 50.3977 25.2505 50.3977C25.2505 50.3977 24.9068 49.6291 24.6131 50.179C24.3194 50.7289 23.6133 52.9973 23.6133 52.9973C23.6133 52.9973 23.8382 51.1726 23.5508 51.8412C23.2633 52.5098 22.8384 54.2783 22.9509 54.6845C23.0634 55.0907 23.0509 54.9094 23.0509 54.9094L24.2694 54.8345Z" fill="#ED0000"/>
<path d="M25.7691 57.5592C25.7691 57.5592 25.0318 55.5595 24.7068 54.9971C24.3819 54.4347 23.1071 54.2035 22.5759 54.9784C22.0448 55.7532 21.9823 56.7531 22.2572 57.7591C22.5322 58.7652 23.582 59.3339 23.582 59.3339L25.7691 57.5592Z" fill="#ED0000"/>
<path d="M30.2872 53.1412C30.2309 53.1537 30.1872 53.1662 30.1434 53.1725C30.0934 53.185 30.0435 53.1912 29.9872 53.1975C29.881 53.21 29.781 53.2162 29.6748 53.2225C29.4686 53.2287 29.2561 53.2225 29.0499 53.2225C28.6312 53.2162 28.2188 53.1975 27.8001 53.1412L27.8751 53.11C27.7563 53.335 27.6251 53.5412 27.4814 53.7474C27.3377 53.9536 27.1939 54.1536 27.0065 54.3285L27.0252 54.2786L27.0002 54.7785C27.0002 54.8285 26.9565 54.8659 26.9002 54.8659C26.8502 54.8659 26.8127 54.8222 26.8127 54.766L26.8377 54.2661C26.8377 54.2598 26.8377 54.2536 26.844 54.2473L26.8565 54.2161C26.9565 53.9848 27.1002 53.7786 27.2502 53.5787C27.4001 53.3787 27.5501 53.185 27.7251 52.9975L27.7313 52.9913C27.7493 52.9723 27.774 52.9611 27.8001 52.96C28.2188 52.8975 28.6312 52.8725 29.0499 52.86C29.2561 52.8538 29.4686 52.8475 29.6748 52.8538C29.8325 52.8606 29.9894 52.8815 30.1434 52.9163C30.1997 52.9288 30.2622 52.9413 30.3059 52.96C30.3559 52.9788 30.3746 53.0413 30.3559 53.085C30.3497 53.1162 30.3184 53.135 30.2872 53.1412Z" fill="#E53935"/>
<path d="M30.1684 52.6037L28.2687 52.3162L28.3374 52.3224L26.6502 52.2725L26.7314 52.2225L26.294 52.9348C26.2628 52.9848 26.2003 52.9973 26.1503 52.9723C26.1271 52.9575 26.1103 52.9345 26.1034 52.9078C26.0964 52.8812 26.0998 52.8529 26.1128 52.8286L26.5502 52.1162C26.5681 52.0908 26.5949 52.073 26.6252 52.0662H26.6377L28.3124 51.8225C28.3374 51.8163 28.3624 51.8225 28.3812 51.8288L30.2184 52.4037C30.2746 52.4224 30.3058 52.4787 30.2871 52.5349C30.2746 52.5787 30.2246 52.6099 30.1684 52.6037Z" fill="#E53935"/>
<path d="M29.7997 51.8351C29.631 51.7789 29.4685 51.7101 29.306 51.6351C29.1436 51.5602 28.9874 51.4852 28.8311 51.4039C28.6749 51.3289 28.5187 51.2415 28.3625 51.154C28.2875 51.1102 28.2125 51.0602 28.1437 51.004C28.075 50.9478 28.0063 50.8853 27.95 50.8103L28 50.8228C27.7875 50.879 27.5751 50.904 27.3626 50.9165C27.1502 50.929 26.9377 50.929 26.719 50.8915C26.7064 50.8896 26.6943 50.8851 26.6836 50.8783C26.6728 50.8715 26.6636 50.8625 26.6566 50.8519C26.6495 50.8413 26.6447 50.8293 26.6426 50.8168C26.6404 50.8042 26.6409 50.7914 26.644 50.779C26.6502 50.7415 26.6752 50.7103 26.7127 50.704C26.9252 50.6416 27.1377 50.6228 27.3501 50.6103C27.5626 50.6041 27.7751 50.5978 27.9938 50.6353L28.0438 50.6478C28.1375 50.6541 28.225 50.6791 28.3125 50.704C28.3999 50.7353 28.4749 50.7665 28.5562 50.8103C28.7061 50.8978 28.8624 50.979 29.0123 51.0727C29.1623 51.1602 29.3123 51.2602 29.456 51.3539C29.606 51.4539 29.7497 51.5539 29.8872 51.6664C29.9309 51.6976 29.9372 51.7601 29.8997 51.7976C29.881 51.8351 29.8372 51.8476 29.7997 51.8351Z" fill="#E53935"/>
<path d="M30.2246 51.9851C29.9684 51.6477 29.7497 51.2915 29.5372 50.9353C29.4373 50.7541 29.331 50.5728 29.2373 50.3854C29.1498 50.1979 29.0686 50.0042 29.0311 49.7855L29.0811 49.8292C28.7249 49.723 28.3812 49.5793 28.0437 49.4293C27.9563 49.3918 27.875 49.3543 27.7938 49.3168L27.6688 49.2543C27.6188 49.2293 27.6251 49.2293 27.5876 49.2168C27.5126 49.1918 27.4251 49.1668 27.3376 49.1418C27.2501 49.1168 27.1626 49.0918 27.0751 49.0606C27.0498 49.051 27.0292 49.032 27.0175 49.0075C27.0059 48.9831 27.0041 48.9551 27.0127 48.9294C27.0252 48.8919 27.0626 48.8606 27.1064 48.8606C27.2001 48.8544 27.2939 48.8606 27.3876 48.8669C27.4813 48.8731 27.5688 48.8794 27.675 48.9044C27.7313 48.9106 27.8188 48.9606 27.85 48.9669L27.975 49.0231L28.2187 49.1356C28.5437 49.2856 28.8624 49.4543 29.1686 49.648L29.2185 49.6917C29.381 49.8417 29.4997 50.0104 29.6122 50.1917C29.7185 50.3729 29.8122 50.5603 29.9059 50.7416C30.0934 51.1165 30.2684 51.4914 30.4121 51.8914C30.4308 51.9414 30.4058 52.0038 30.3496 52.0226C30.2934 52.0351 30.2496 52.0163 30.2246 51.9851Z" fill="#E53935"/>
<path d="M29.2561 58.2656C29.506 57.8594 29.0623 57.2532 28.8749 56.9033C28.5999 56.3971 28.2812 55.916 27.9375 55.4598C27.925 55.4348 27.9063 55.4098 27.8938 55.3785C27.8889 55.3682 27.8819 55.359 27.8733 55.3515C27.8647 55.344 27.8547 55.3383 27.8438 55.3348C27.8126 55.2911 27.7813 55.2473 27.7438 55.2098C27.6688 55.1161 27.5376 55.2473 27.6063 55.3348C27.6563 55.3973 27.7063 55.4598 27.7563 55.5285C28.2 56.4409 28.6499 57.347 29.0936 58.2593C29.1248 58.3218 29.2186 58.3218 29.2561 58.2656Z" fill="#E53935"/>
<path d="M28.225 59.1714C28.6437 58.7652 28.2875 57.9154 28.1625 57.4467C27.9799 56.7675 27.7459 56.1032 27.4626 55.4595C27.4501 55.422 27.4439 55.3908 27.4314 55.3533C27.4288 55.3404 27.4235 55.3283 27.416 55.3175C27.4085 55.3068 27.3988 55.2977 27.3876 55.2908C27.3626 55.2283 27.3376 55.1721 27.3064 55.1096C27.2439 54.9784 27.0439 55.0846 27.1064 55.2221C27.1502 55.3096 27.1877 55.4033 27.2252 55.4908L28.0313 59.1214C28.05 59.2027 28.1625 59.2277 28.225 59.1714Z" fill="#E53935"/>
<path d="M27.194 59.4901C27.6939 59.1777 27.4877 58.2528 27.4439 57.7592C27.3877 57.0405 27.2627 56.3281 27.094 55.622C27.0877 55.5845 27.0877 55.547 27.0815 55.5095C27.0815 55.4783 27.0627 55.4533 27.044 55.4345C27.0252 55.372 27.0127 55.3033 26.994 55.2346C26.9565 55.0908 26.7315 55.1533 26.7753 55.2971C26.8003 55.397 26.8253 55.497 26.8503 55.5908C26.9002 56.8531 26.9565 58.1216 27.0065 59.3839C27.0127 59.4839 27.119 59.5339 27.194 59.4901Z" fill="#E53935"/>
<path d="M26.1816 59.8651C26.7627 59.5963 26.6815 58.584 26.7128 58.0466C26.7627 57.2717 26.7378 56.4969 26.669 55.7282C26.669 55.6908 26.6753 55.647 26.6753 55.6095C26.6753 55.572 26.6628 55.547 26.6503 55.5283L26.6315 55.3096C26.6128 55.1471 26.3691 55.1908 26.3878 55.3533C26.4003 55.4595 26.4128 55.572 26.4191 55.6783L26.0066 59.7401C25.9941 59.8338 26.1004 59.9025 26.1816 59.8651Z" fill="#E53935"/>
<path d="M25.1505 61.5147C25.1505 61.5147 24.1944 61.3647 23.7133 60.6211C23.2321 59.8775 23.0134 59.2901 23.4196 58.7339C23.832 58.1777 24.5131 57.5841 25.7567 57.3279L26.7128 58.7589L25.1505 61.5147Z" fill="#ED0000"/>
<path d="M27.2564 62.8831C27.2564 62.8831 24.7756 62.4207 24.7693 61.7583C24.7631 61.0959 26.5753 58.5588 26.5753 58.5588L27.6813 59.2837L27.2564 62.8831Z" fill="#ED0000"/>
<path d="M30.6871 62.0397C30.6871 62.0397 29.831 62.7396 28.6999 62.952C27.5689 63.1645 27.1064 63.1895 27.1064 63.1895C27.1064 63.1895 26.8065 62.3459 26.8877 60.9711C26.9752 59.5963 27.0752 58.9902 27.0752 58.9902L28.4312 58.7777L30.6871 62.0397Z" fill="#ED0000"/>
<path d="M32.7368 60.0212C32.7368 60.0212 31.6245 61.7584 31.0683 62.1146C30.5059 62.4708 29.4623 61.7084 28.8249 60.6398C28.1875 59.5713 28.0938 59.1713 28.0688 58.6839C28.0438 58.1965 29.0936 57.884 29.0936 57.884L32.7368 60.0212Z" fill="#ED0000"/>
<path d="M33.1991 57.5154C33.1991 57.5154 33.3491 59.3401 32.9741 59.7588C32.6054 60.1713 31.5181 60.2337 30.0559 59.4589C28.6936 58.734 28.5624 58.4965 28.7623 57.9091C28.9998 57.2092 29.281 56.1594 29.9746 55.8657C30.6745 55.5658 33.1991 57.5154 33.1991 57.5154Z" fill="#ED0000"/>
<path d="M33.1992 57.5156C33.1992 57.5156 31.5807 57.628 30.5621 56.8719C29.5436 56.1158 29.3061 54.8598 29.7623 50.9417C30.2434 46.8861 31.0496 45.7238 31.0496 45.7238L31.537 46.1862L31.7432 44.8739L32.2494 45.6363L32.4806 44.8364L33.3117 48.5046L33.7304 46.8798C33.7304 46.8798 33.9866 50.7979 33.8428 53.0476C33.7116 55.2909 33.5241 56.3095 33.1992 57.5156Z" fill="#ED0000"/>
<path d="M33.0242 49.8354C33.3003 49.8354 33.5241 49.6116 33.5241 49.3355C33.5241 49.0594 33.3003 48.8356 33.0242 48.8356C32.7481 48.8356 32.5243 49.0594 32.5243 49.3355C32.5243 49.6116 32.7481 49.8354 33.0242 49.8354Z" fill="black"/>
<defs>
<radialGradient id="paint0_radial" cx="0" cy="0" r="1" gradientUnits="userSpaceOnUse" gradientTransform="translate(37.5058 37.5013) rotate(-45.001) scale(37.3375)">
<stop offset="0.596"/>
<stop offset="0.676" stop-color="#060606"/>
<stop offset="0.784" stop-color="#171717"/>
<stop offset="0.908" stop-color="#333333"/>
<stop offset="1" stop-color="#4D4D4D"/>
</radialGradient>
<radialGradient id="paint1_radial" cx="0" cy="0" r="1" gradientUnits="userSpaceOnUse" gradientTransform="translate(37.4702 37.3681) scale(34.1381)">
<stop stop-color="#EFC700"/>
<stop offset="1" stop-color="#FF8D03"/>
</radialGradient>
<linearGradient id="paint2_linear" x1="8.50434" y1="40.3083" x2="12.8049" y2="35.6454" gradientUnits="userSpaceOnUse">
<stop offset="0.005" stop-color="#FABD00"/>
<stop offset="0.244" stop-color="#FAC300"/>
<stop offset="0.567" stop-color="#FAD400"/>
<stop offset="0.935" stop-color="#FAF000"/>
<stop offset="1" stop-color="#FAF600"/>
</linearGradient>
<linearGradient id="paint3_linear" x1="9.88391" y1="41.584" x2="14.1845" y2="36.9211" gradientUnits="userSpaceOnUse">
<stop offset="0.005" stop-color="#FABD00"/>
<stop offset="0.244" stop-color="#FAC300"/>
<stop offset="0.567" stop-color="#FAD400"/>
<stop offset="0.935" stop-color="#FAF000"/>
<stop offset="1" stop-color="#FAF600"/>
</linearGradient>
<linearGradient id="paint4_linear" x1="12.5261" y1="44.0202" x2="16.8266" y2="39.3573" gradientUnits="userSpaceOnUse">
<stop offset="0.005" stop-color="#FABD00"/>
<stop offset="0.244" stop-color="#FAC300"/>
<stop offset="0.567" stop-color="#FAD400"/>
<stop offset="0.935" stop-color="#FAF000"/>
<stop offset="1" stop-color="#FAF600"/>
</linearGradient>
<linearGradient id="paint5_linear" x1="13.5685" y1="44.9788" x2="17.8635" y2="40.3131" gradientUnits="userSpaceOnUse">
<stop offset="0.005" stop-color="#FABD00"/>
<stop offset="0.244" stop-color="#FAC300"/>
<stop offset="0.567" stop-color="#FAD400"/>
<stop offset="0.935" stop-color="#FAF000"/>
<stop offset="1" stop-color="#FAF600"/>
</linearGradient>
<linearGradient id="paint6_linear" x1="60.0006" y1="54.8863" x2="53.0803" y2="51.1506" gradientUnits="userSpaceOnUse">
<stop offset="0.005" stop-color="#FABD00"/>
<stop offset="0.244" stop-color="#FAC300"/>
<stop offset="0.567" stop-color="#FAD400"/>
<stop offset="0.935" stop-color="#FAF000"/>
<stop offset="1" stop-color="#FAF600"/>
</linearGradient>
<linearGradient id="paint7_linear" x1="61.1037" y1="52.8384" x2="54.182" y2="49.1088" gradientUnits="userSpaceOnUse">
<stop offset="0.005" stop-color="#FABD00"/>
<stop offset="0.244" stop-color="#FAC300"/>
<stop offset="0.567" stop-color="#FAD400"/>
<stop offset="0.935" stop-color="#FAF000"/>
<stop offset="1" stop-color="#FAF600"/>
</linearGradient>
<linearGradient id="paint8_linear" x1="63.2193" y1="48.9208" x2="56.2989" y2="45.1851" gradientUnits="userSpaceOnUse">
<stop offset="0.005" stop-color="#FABD00"/>
<stop offset="0.244" stop-color="#FAC300"/>
<stop offset="0.567" stop-color="#FAD400"/>
<stop offset="0.935" stop-color="#FAF000"/>
<stop offset="1" stop-color="#FAF600"/>
</linearGradient>
<linearGradient id="paint9_linear" x1="64.0504" y1="47.3824" x2="57.13" y2="43.6467" gradientUnits="userSpaceOnUse">
<stop offset="0.005" stop-color="#FABD00"/>
<stop offset="0.244" stop-color="#FAC300"/>
<stop offset="0.567" stop-color="#FAD400"/>
<stop offset="0.935" stop-color="#FAF000"/>
<stop offset="1" stop-color="#FAF600"/>
</linearGradient>
<linearGradient id="paint10_linear" x1="60.0328" y1="15.0358" x2="57.4385" y2="21.9091" gradientUnits="userSpaceOnUse">
<stop offset="0.005" stop-color="#FABD00"/>
<stop offset="0.244" stop-color="#FAC300"/>
<stop offset="0.567" stop-color="#FAD400"/>
<stop offset="0.935" stop-color="#FAF000"/>
<stop offset="1" stop-color="#FAF600"/>
</linearGradient>
<linearGradient id="paint11_linear" x1="58.0019" y1="14.269" x2="55.4076" y2="21.1422" gradientUnits="userSpaceOnUse">
<stop offset="0.005" stop-color="#FABD00"/>
<stop offset="0.244" stop-color="#FAC300"/>
<stop offset="0.567" stop-color="#FAD400"/>
<stop offset="0.935" stop-color="#FAF000"/>
<stop offset="1" stop-color="#FAF600"/>
</linearGradient>
<linearGradient id="paint12_linear" x1="54.1043" y1="12.7987" x2="51.5101" y2="19.672" gradientUnits="userSpaceOnUse">
<stop offset="0.005" stop-color="#FABD00"/>
<stop offset="0.244" stop-color="#FAC300"/>
<stop offset="0.567" stop-color="#FAD400"/>
<stop offset="0.935" stop-color="#FAF000"/>
<stop offset="1" stop-color="#FAF600"/>
</linearGradient>
<linearGradient id="paint13_linear" x1="52.5783" y1="12.221" x2="49.984" y2="19.0942" gradientUnits="userSpaceOnUse">
<stop offset="0.005" stop-color="#FABD00"/>
<stop offset="0.244" stop-color="#FAC300"/>
<stop offset="0.567" stop-color="#FAD400"/>
<stop offset="0.935" stop-color="#FAF000"/>
<stop offset="1" stop-color="#FAF600"/>
</linearGradient>
<linearGradient id="paint14_linear" x1="8.7919" y1="30.8242" x2="27.1436" y2="36.9163" gradientUnits="userSpaceOnUse">
<stop offset="0.404"/>
<stop offset="0.493" stop-color="#0F0F0F"/>
<stop offset="0.691" stop-color="#2A2A2A"/>
<stop offset="0.866" stop-color="#3A3A3A"/>
<stop offset="1" stop-color="#404040"/>
</linearGradient>
<linearGradient id="paint15_linear" x1="41.8612" y1="7.05571" x2="36.8755" y2="28.2587" gradientUnits="userSpaceOnUse">
<stop offset="0.404"/>
<stop offset="0.493" stop-color="#0F0F0F"/>
<stop offset="0.691" stop-color="#2A2A2A"/>
<stop offset="0.866" stop-color="#3A3A3A"/>
<stop offset="1" stop-color="#404040"/>
</linearGradient>
<linearGradient id="paint16_linear" x1="65.9982" y1="26.4248" x2="50.2554" y2="37.3464" gradientUnits="userSpaceOnUse">
<stop offset="0.404"/>
<stop offset="0.493" stop-color="#0F0F0F"/>
<stop offset="0.691" stop-color="#2A2A2A"/>
<stop offset="0.866" stop-color="#3A3A3A"/>
<stop offset="1" stop-color="#404040"/>
</linearGradient>
<linearGradient id="paint17_linear" x1="51.0487" y1="65.2344" x2="36.6731" y2="49.0415" gradientUnits="userSpaceOnUse">
<stop offset="0.404"/>
<stop offset="0.493" stop-color="#0F0F0F"/>
<stop offset="0.691" stop-color="#2A2A2A"/>
<stop offset="0.866" stop-color="#3A3A3A"/>
<stop offset="1" stop-color="#404040"/>
</linearGradient>
</defs>
</svg>
