<svg width="20" height="20" viewBox="0 0 20 20" fill="none" xmlns="http://www.w3.org/2000/svg">
<path d="M5.6212 3.125C5.24645 3.125 4.99662 3.5 4.99662 3.75V6.875H3.74746V3.75C3.74746 3.375 3.49763 3.125 3.12289 3.125C2.74814 3.125 2.49831 3.5 2.49831 3.75V6.875H1.24915V3.75C1.24915 3.375 0.999324 3.125 0.624577 3.125C0.249831 3.125 0 3.5 0 3.75V7.875C0 9 0.874408 9.875 1.87373 10V18.75C1.87373 19.5 2.37339 20 3.12289 20C3.87238 20 4.37204 19.5 4.37204 18.75V10C5.37137 9.875 6.24577 9 6.24577 7.875V3.75C6.24577 3.5 5.99594 3.125 5.6212 3.125ZM8.11951 3.75V11.25H9.36866V18.75C9.36866 19.5 9.86832 20 10.6178 20C11.3673 20 11.867 19.5 11.867 18.75V0C9.74341 0 8.11951 1.625 8.11951 3.75ZM16.8636 2.5C15.1148 2.5 13.7407 4.375 13.7407 6.625C13.6158 8.125 14.3653 9.5 15.6144 10.375V18.75C15.6144 19.5 16.1141 20 16.8636 20C17.6131 20 18.1127 19.5 18.1127 18.75V10.375C19.3619 9.5 20.1114 8.125 19.9865 6.625C19.9865 4.375 18.6124 2.5 16.8636 2.5Z" fill="white"/>
</svg>
